<?xml version="1.0" encoding="utf-8" ?>
<svg baseProfile="tiny" height="100px" version="1.2" width="100px" xmlns="http://www.w3.org/2000/svg" xmlns:ev="http://www.w3.org/2001/xml-events" xmlns:xlink="http://www.w3.org/1999/xlink"><defs /><rect fill="blue" height="1" width="1" x="64" y="27" /><rect fill="blue" height="1" width="1" x="65" y="27" /><rect fill="blue" height="1" width="1" x="62" y="28" /><rect fill="blue" height="1" width="1" x="63" y="28" /><rect fill="blue" height="1" width="1" x="64" y="28" /><rect fill="blue" height="1" width="1" x="65" y="28" /><rect fill="blue" height="1" width="1" x="59" y="29" /><rect fill="blue" height="1" width="1" x="60" y="29" /><rect fill="blue" height="1" width="1" x="61" y="29" /><rect fill="blue" height="1" width="1" x="62" y="29" /><rect fill="blue" height="1" width="1" x="63" y="29" /><rect fill="blue" height="1" width="1" x="64" y="29" /><rect fill="blue" height="1" width="1" x="65" y="29" /><rect fill="blue" height="1" width="1" x="56" y="30" /><rect fill="blue" height="1" width="1" x="57" y="30" /><rect fill="blue" height="1" width="1" x="58" y="30" /><rect fill="blue" height="1" width="1" x="59" y="30" /><rect fill="blue" height="1" width="1" x="60" y="30" /><rect fill="blue" height="1" width="1" x="61" y="30" /><rect fill="blue" height="1" width="1" x="62" y="30" /><rect fill="blue" height="1" width="1" x="63" y="30" /><rect fill="blue" height="1" width="1" x="64" y="30" /><rect fill="blue" height="1" width="1" x="65" y="30" /><rect fill="blue" height="1" width="1" x="54" y="31" /><rect fill="blue" height="1" width="1" x="55" y="31" /><rect fill="blue" height="1" width="1" x="56" y="31" /><rect fill="blue" height="1" width="1" x="57" y="31" /><rect fill="blue" height="1" width="1" x="58" y="31" /><rect fill="blue" height="1" width="1" x="59" y="31" /><rect fill="blue" height="1" width="1" x="60" y="31" /><rect fill="blue" height="1" width="1" x="61" y="31" /><rect fill="blue" height="1" width="1" x="62" y="31" /><rect fill="blue" height="1" width="1" x="63" y="31" /><rect fill="blue" height="1" width="1" x="64" y="31" /><rect fill="blue" height="1" width="1" x="65" y="31" /><rect fill="blue" height="1" width="1" x="52" y="32" /><rect fill="blue" height="1" width="1" x="53" y="32" /><rect fill="blue" height="1" width="1" x="54" y="32" /><rect fill="blue" height="1" width="1" x="55" y="32" /><rect fill="blue" height="1" width="1" x="56" y="32" /><rect fill="blue" height="1" width="1" x="57" y="32" /><rect fill="blue" height="1" width="1" x="58" y="32" /><rect fill="blue" height="1" width="1" x="59" y="32" /><rect fill="blue" height="1" width="1" x="60" y="32" /><rect fill="blue" height="1" width="1" x="61" y="32" /><rect fill="blue" height="1" width="1" x="62" y="32" /><rect fill="blue" height="1" width="1" x="63" y="32" /><rect fill="blue" height="1" width="1" x="64" y="32" /><rect fill="blue" height="1" width="1" x="65" y="32" /><rect fill="blue" height="1" width="1" x="40" y="33" /><rect fill="blue" height="1" width="1" x="41" y="33" /><rect fill="blue" height="1" width="1" x="42" y="33" /><rect fill="blue" height="1" width="1" x="50" y="33" /><rect fill="blue" height="1" width="1" x="51" y="33" /><rect fill="blue" height="1" width="1" x="52" y="33" /><rect fill="blue" height="1" width="1" x="53" y="33" /><rect fill="blue" height="1" width="1" x="54" y="33" /><rect fill="blue" height="1" width="1" x="55" y="33" /><rect fill="blue" height="1" width="1" x="56" y="33" /><rect fill="blue" height="1" width="1" x="57" y="33" /><rect fill="blue" height="1" width="1" x="58" y="33" /><rect fill="blue" height="1" width="1" x="59" y="33" /><rect fill="blue" height="1" width="1" x="60" y="33" /><rect fill="blue" height="1" width="1" x="61" y="33" /><rect fill="blue" height="1" width="1" x="62" y="33" /><rect fill="blue" height="1" width="1" x="63" y="33" /><rect fill="blue" height="1" width="1" x="64" y="33" /><rect fill="blue" height="1" width="1" x="65" y="33" /><rect fill="blue" height="1" width="1" x="40" y="34" /><rect fill="blue" height="1" width="1" x="41" y="34" /><rect fill="blue" height="1" width="1" x="42" y="34" /><rect fill="blue" height="1" width="1" x="43" y="34" /><rect fill="blue" height="1" width="1" x="44" y="34" /><rect fill="blue" height="1" width="1" x="47" y="34" /><rect fill="blue" height="1" width="1" x="48" y="34" /><rect fill="blue" height="1" width="1" x="49" y="34" /><rect fill="blue" height="1" width="1" x="50" y="34" /><rect fill="blue" height="1" width="1" x="51" y="34" /><rect fill="blue" height="1" width="1" x="52" y="34" /><rect fill="blue" height="1" width="1" x="53" y="34" /><rect fill="blue" height="1" width="1" x="54" y="34" /><rect fill="blue" height="1" width="1" x="55" y="34" /><rect fill="blue" height="1" width="1" x="56" y="34" /><rect fill="blue" height="1" width="1" x="57" y="34" /><rect fill="blue" height="1" width="1" x="58" y="34" /><rect fill="blue" height="1" width="1" x="59" y="34" /><rect fill="blue" height="1" width="1" x="60" y="34" /><rect fill="blue" height="1" width="1" x="61" y="34" /><rect fill="blue" height="1" width="1" x="62" y="34" /><rect fill="blue" height="1" width="1" x="63" y="34" /><rect fill="blue" height="1" width="1" x="64" y="34" /><rect fill="blue" height="1" width="1" x="65" y="34" /><rect fill="blue" height="1" width="1" x="40" y="35" /><rect fill="blue" height="1" width="1" x="41" y="35" /><rect fill="blue" height="1" width="1" x="42" y="35" /><rect fill="blue" height="1" width="1" x="43" y="35" /><rect fill="blue" height="1" width="1" x="44" y="35" /><rect fill="blue" height="1" width="1" x="45" y="35" /><rect fill="blue" height="1" width="1" x="46" y="35" /><rect fill="blue" height="1" width="1" x="47" y="35" /><rect fill="blue" height="1" width="1" x="48" y="35" /><rect fill="blue" height="1" width="1" x="49" y="35" /><rect fill="blue" height="1" width="1" x="50" y="35" /><rect fill="blue" height="1" width="1" x="51" y="35" /><rect fill="blue" height="1" width="1" x="52" y="35" /><rect fill="blue" height="1" width="1" x="53" y="35" /><rect fill="blue" height="1" width="1" x="54" y="35" /><rect fill="blue" height="1" width="1" x="55" y="35" /><rect fill="blue" height="1" width="1" x="56" y="35" /><rect fill="blue" height="1" width="1" x="57" y="35" /><rect fill="blue" height="1" width="1" x="58" y="35" /><rect fill="blue" height="1" width="1" x="59" y="35" /><rect fill="blue" height="1" width="1" x="60" y="35" /><rect fill="blue" height="1" width="1" x="61" y="35" /><rect fill="blue" height="1" width="1" x="62" y="35" /><rect fill="blue" height="1" width="1" x="63" y="35" /><rect fill="blue" height="1" width="1" x="64" y="35" /><rect fill="blue" height="1" width="1" x="40" y="36" /><rect fill="blue" height="1" width="1" x="41" y="36" /><rect fill="blue" height="1" width="1" x="42" y="36" /><rect fill="blue" height="1" width="1" x="43" y="36" /><rect fill="blue" height="1" width="1" x="44" y="36" /><rect fill="blue" height="1" width="1" x="45" y="36" /><rect fill="blue" height="1" width="1" x="46" y="36" /><rect fill="blue" height="1" width="1" x="47" y="36" /><rect fill="blue" height="1" width="1" x="48" y="36" /><rect fill="blue" height="1" width="1" x="49" y="36" /><rect fill="blue" height="1" width="1" x="50" y="36" /><rect fill="blue" height="1" width="1" x="51" y="36" /><rect fill="blue" height="1" width="1" x="52" y="36" /><rect fill="blue" height="1" width="1" x="53" y="36" /><rect fill="blue" height="1" width="1" x="54" y="36" /><rect fill="blue" height="1" width="1" x="55" y="36" /><rect fill="blue" height="1" width="1" x="56" y="36" /><rect fill="blue" height="1" width="1" x="57" y="36" /><rect fill="blue" height="1" width="1" x="58" y="36" /><rect fill="blue" height="1" width="1" x="59" y="36" /><rect fill="blue" height="1" width="1" x="60" y="36" /><rect fill="blue" height="1" width="1" x="61" y="36" /><rect fill="blue" height="1" width="1" x="40" y="37" /><rect fill="blue" height="1" width="1" x="41" y="37" /><rect fill="blue" height="1" width="1" x="42" y="37" /><rect fill="blue" height="1" width="1" x="43" y="37" /><rect fill="blue" height="1" width="1" x="44" y="37" /><rect fill="blue" height="1" width="1" x="45" y="37" /><rect fill="blue" height="1" width="1" x="46" y="37" /><rect fill="blue" height="1" width="1" x="47" y="37" /><rect fill="blue" height="1" width="1" x="48" y="37" /><rect fill="blue" height="1" width="1" x="49" y="37" /><rect fill="blue" height="1" width="1" x="50" y="37" /><rect fill="blue" height="1" width="1" x="51" y="37" /><rect fill="blue" height="1" width="1" x="52" y="37" /><rect fill="blue" height="1" width="1" x="53" y="37" /><rect fill="blue" height="1" width="1" x="54" y="37" /><rect fill="blue" height="1" width="1" x="55" y="37" /><rect fill="blue" height="1" width="1" x="56" y="37" /><rect fill="blue" height="1" width="1" x="57" y="37" /><rect fill="blue" height="1" width="1" x="58" y="37" /><rect fill="blue" height="1" width="1" x="59" y="37" /><rect fill="blue" height="1" width="1" x="40" y="38" /><rect fill="blue" height="1" width="1" x="41" y="38" /><rect fill="blue" height="1" width="1" x="42" y="38" /><rect fill="blue" height="1" width="1" x="43" y="38" /><rect fill="blue" height="1" width="1" x="44" y="38" /><rect fill="blue" height="1" width="1" x="45" y="38" /><rect fill="blue" height="1" width="1" x="46" y="38" /><rect fill="blue" height="1" width="1" x="47" y="38" /><rect fill="blue" height="1" width="1" x="48" y="38" /><rect fill="blue" height="1" width="1" x="49" y="38" /><rect fill="blue" height="1" width="1" x="50" y="38" /><rect fill="blue" height="1" width="1" x="51" y="38" /><rect fill="blue" height="1" width="1" x="52" y="38" /><rect fill="blue" height="1" width="1" x="53" y="38" /><rect fill="blue" height="1" width="1" x="54" y="38" /><rect fill="blue" height="1" width="1" x="55" y="38" /><rect fill="blue" height="1" width="1" x="56" y="38" /><rect fill="blue" height="1" width="1" x="40" y="39" /><rect fill="blue" height="1" width="1" x="41" y="39" /><rect fill="blue" height="1" width="1" x="42" y="39" /><rect fill="blue" height="1" width="1" x="43" y="39" /><rect fill="blue" height="1" width="1" x="44" y="39" /><rect fill="blue" height="1" width="1" x="45" y="39" /><rect fill="blue" height="1" width="1" x="46" y="39" /><rect fill="blue" height="1" width="1" x="47" y="39" /><rect fill="blue" height="1" width="1" x="48" y="39" /><rect fill="blue" height="1" width="1" x="49" y="39" /><rect fill="blue" height="1" width="1" x="50" y="39" /><rect fill="blue" height="1" width="1" x="51" y="39" /><rect fill="blue" height="1" width="1" x="52" y="39" /><rect fill="blue" height="1" width="1" x="53" y="39" /><rect fill="blue" height="1" width="1" x="54" y="39" /><rect fill="blue" height="1" width="1" x="40" y="40" /><rect fill="blue" height="1" width="1" x="41" y="40" /><rect fill="blue" height="1" width="1" x="42" y="40" /><rect fill="blue" height="1" width="1" x="43" y="40" /><rect fill="blue" height="1" width="1" x="44" y="40" /><rect fill="blue" height="1" width="1" x="45" y="40" /><rect fill="blue" height="1" width="1" x="46" y="40" /><rect fill="blue" height="1" width="1" x="47" y="40" /><rect fill="blue" height="1" width="1" x="48" y="40" /><rect fill="blue" height="1" width="1" x="49" y="40" /><rect fill="blue" height="1" width="1" x="50" y="40" /><rect fill="blue" height="1" width="1" x="51" y="40" /><rect fill="blue" height="1" width="1" x="43" y="41" /><rect fill="blue" height="1" width="1" x="44" y="41" /><rect fill="blue" height="1" width="1" x="45" y="41" /><rect fill="blue" height="1" width="1" x="46" y="41" /><rect fill="blue" height="1" width="1" x="47" y="41" /><rect fill="blue" height="1" width="1" x="48" y="41" /><rect fill="blue" height="1" width="1" x="49" y="41" /><rect fill="blue" height="1" width="1" x="45" y="42" /><rect fill="blue" height="1" width="1" x="46" y="42" /><rect fill="blue" height="1" width="1" x="58" y="45" /><rect fill="blue" height="1" width="1" x="59" y="45" /><rect fill="blue" height="1" width="1" x="60" y="45" /><rect fill="blue" height="1" width="1" x="56" y="46" /><rect fill="blue" height="1" width="1" x="57" y="46" /><rect fill="blue" height="1" width="1" x="58" y="46" /><rect fill="blue" height="1" width="1" x="59" y="46" /><rect fill="blue" height="1" width="1" x="60" y="46" /><rect fill="blue" height="1" width="1" x="53" y="47" /><rect fill="blue" height="1" width="1" x="54" y="47" /><rect fill="blue" height="1" width="1" x="55" y="47" /><rect fill="blue" height="1" width="1" x="56" y="47" /><rect fill="blue" height="1" width="1" x="57" y="47" /><rect fill="blue" height="1" width="1" x="58" y="47" /><rect fill="blue" height="1" width="1" x="59" y="47" /><rect fill="blue" height="1" width="1" x="60" y="47" /><rect fill="blue" height="1" width="1" x="40" y="48" /><rect fill="blue" height="1" width="1" x="51" y="48" /><rect fill="blue" height="1" width="1" x="52" y="48" /><rect fill="blue" height="1" width="1" x="53" y="48" /><rect fill="blue" height="1" width="1" x="54" y="48" /><rect fill="blue" height="1" width="1" x="55" y="48" /><rect fill="blue" height="1" width="1" x="56" y="48" /><rect fill="blue" height="1" width="1" x="57" y="48" /><rect fill="blue" height="1" width="1" x="58" y="48" /><rect fill="blue" height="1" width="1" x="59" y="48" /><rect fill="blue" height="1" width="1" x="60" y="48" /><rect fill="blue" height="1" width="1" x="40" y="49" /><rect fill="blue" height="1" width="1" x="41" y="49" /><rect fill="blue" height="1" width="1" x="42" y="49" /><rect fill="blue" height="1" width="1" x="43" y="49" /><rect fill="blue" height="1" width="1" x="49" y="49" /><rect fill="blue" height="1" width="1" x="50" y="49" /><rect fill="blue" height="1" width="1" x="51" y="49" /><rect fill="blue" height="1" width="1" x="52" y="49" /><rect fill="blue" height="1" width="1" x="53" y="49" /><rect fill="blue" height="1" width="1" x="54" y="49" /><rect fill="blue" height="1" width="1" x="55" y="49" /><rect fill="blue" height="1" width="1" x="56" y="49" /><rect fill="blue" height="1" width="1" x="57" y="49" /><rect fill="blue" height="1" width="1" x="58" y="49" /><rect fill="blue" height="1" width="1" x="59" y="49" /><rect fill="blue" height="1" width="1" x="60" y="49" /><rect fill="blue" height="1" width="1" x="40" y="50" /><rect fill="blue" height="1" width="1" x="41" y="50" /><rect fill="blue" height="1" width="1" x="42" y="50" /><rect fill="blue" height="1" width="1" x="43" y="50" /><rect fill="blue" height="1" width="1" x="44" y="50" /><rect fill="blue" height="1" width="1" x="45" y="50" /><rect fill="blue" height="1" width="1" x="46" y="50" /><rect fill="blue" height="1" width="1" x="47" y="50" /><rect fill="blue" height="1" width="1" x="48" y="50" /><rect fill="blue" height="1" width="1" x="49" y="50" /><rect fill="blue" height="1" width="1" x="50" y="50" /><rect fill="blue" height="1" width="1" x="51" y="50" /><rect fill="blue" height="1" width="1" x="52" y="50" /><rect fill="blue" height="1" width="1" x="53" y="50" /><rect fill="blue" height="1" width="1" x="54" y="50" /><rect fill="blue" height="1" width="1" x="55" y="50" /><rect fill="blue" height="1" width="1" x="56" y="50" /><rect fill="blue" height="1" width="1" x="57" y="50" /><rect fill="blue" height="1" width="1" x="58" y="50" /><rect fill="blue" height="1" width="1" x="59" y="50" /><rect fill="blue" height="1" width="1" x="60" y="50" /><rect fill="blue" height="1" width="1" x="40" y="51" /><rect fill="blue" height="1" width="1" x="41" y="51" /><rect fill="blue" height="1" width="1" x="42" y="51" /><rect fill="blue" height="1" width="1" x="43" y="51" /><rect fill="blue" height="1" width="1" x="44" y="51" /><rect fill="blue" height="1" width="1" x="45" y="51" /><rect fill="blue" height="1" width="1" x="46" y="51" /><rect fill="blue" height="1" width="1" x="47" y="51" /><rect fill="blue" height="1" width="1" x="48" y="51" /><rect fill="blue" height="1" width="1" x="49" y="51" /><rect fill="blue" height="1" width="1" x="50" y="51" /><rect fill="blue" height="1" width="1" x="51" y="51" /><rect fill="blue" height="1" width="1" x="52" y="51" /><rect fill="blue" height="1" width="1" x="53" y="51" /><rect fill="blue" height="1" width="1" x="54" y="51" /><rect fill="blue" height="1" width="1" x="55" y="51" /><rect fill="blue" height="1" width="1" x="56" y="51" /><rect fill="blue" height="1" width="1" x="57" y="51" /><rect fill="blue" height="1" width="1" x="58" y="51" /><rect fill="blue" height="1" width="1" x="59" y="51" /><rect fill="blue" height="1" width="1" x="60" y="51" /><rect fill="blue" height="1" width="1" x="40" y="52" /><rect fill="blue" height="1" width="1" x="41" y="52" /><rect fill="blue" height="1" width="1" x="42" y="52" /><rect fill="blue" height="1" width="1" x="43" y="52" /><rect fill="blue" height="1" width="1" x="44" y="52" /><rect fill="blue" height="1" width="1" x="45" y="52" /><rect fill="blue" height="1" width="1" x="46" y="52" /><rect fill="blue" height="1" width="1" x="47" y="52" /><rect fill="blue" height="1" width="1" x="48" y="52" /><rect fill="blue" height="1" width="1" x="49" y="52" /><rect fill="blue" height="1" width="1" x="50" y="52" /><rect fill="blue" height="1" width="1" x="51" y="52" /><rect fill="blue" height="1" width="1" x="52" y="52" /><rect fill="blue" height="1" width="1" x="53" y="52" /><rect fill="blue" height="1" width="1" x="54" y="52" /><rect fill="blue" height="1" width="1" x="55" y="52" /><rect fill="blue" height="1" width="1" x="56" y="52" /><rect fill="blue" height="1" width="1" x="57" y="52" /><rect fill="blue" height="1" width="1" x="58" y="52" /><rect fill="blue" height="1" width="1" x="59" y="52" /><rect fill="blue" height="1" width="1" x="60" y="52" /><rect fill="blue" height="1" width="1" x="40" y="53" /><rect fill="blue" height="1" width="1" x="41" y="53" /><rect fill="blue" height="1" width="1" x="42" y="53" /><rect fill="blue" height="1" width="1" x="43" y="53" /><rect fill="blue" height="1" width="1" x="44" y="53" /><rect fill="blue" height="1" width="1" x="45" y="53" /><rect fill="blue" height="1" width="1" x="46" y="53" /><rect fill="blue" height="1" width="1" x="47" y="53" /><rect fill="blue" height="1" width="1" x="48" y="53" /><rect fill="blue" height="1" width="1" x="49" y="53" /><rect fill="blue" height="1" width="1" x="50" y="53" /><rect fill="blue" height="1" width="1" x="51" y="53" /><rect fill="blue" height="1" width="1" x="52" y="53" /><rect fill="blue" height="1" width="1" x="53" y="53" /><rect fill="blue" height="1" width="1" x="54" y="53" /><rect fill="blue" height="1" width="1" x="55" y="53" /><rect fill="blue" height="1" width="1" x="56" y="53" /><rect fill="blue" height="1" width="1" x="57" y="53" /><rect fill="blue" height="1" width="1" x="58" y="53" /><rect fill="blue" height="1" width="1" x="40" y="54" /><rect fill="blue" height="1" width="1" x="41" y="54" /><rect fill="blue" height="1" width="1" x="42" y="54" /><rect fill="blue" height="1" width="1" x="43" y="54" /><rect fill="blue" height="1" width="1" x="44" y="54" /><rect fill="blue" height="1" width="1" x="45" y="54" /><rect fill="blue" height="1" width="1" x="46" y="54" /><rect fill="blue" height="1" width="1" x="47" y="54" /><rect fill="blue" height="1" width="1" x="48" y="54" /><rect fill="blue" height="1" width="1" x="49" y="54" /><rect fill="blue" height="1" width="1" x="50" y="54" /><rect fill="blue" height="1" width="1" x="51" y="54" /><rect fill="blue" height="1" width="1" x="52" y="54" /><rect fill="blue" height="1" width="1" x="53" y="54" /><rect fill="blue" height="1" width="1" x="54" y="54" /><rect fill="blue" height="1" width="1" x="55" y="54" /><rect fill="blue" height="1" width="1" x="56" y="54" /><rect fill="blue" height="1" width="1" x="40" y="55" /><rect fill="blue" height="1" width="1" x="41" y="55" /><rect fill="blue" height="1" width="1" x="42" y="55" /><rect fill="blue" height="1" width="1" x="43" y="55" /><rect fill="blue" height="1" width="1" x="44" y="55" /><rect fill="blue" height="1" width="1" x="45" y="55" /><rect fill="blue" height="1" width="1" x="46" y="55" /><rect fill="blue" height="1" width="1" x="47" y="55" /><rect fill="blue" height="1" width="1" x="48" y="55" /><rect fill="blue" height="1" width="1" x="49" y="55" /><rect fill="blue" height="1" width="1" x="50" y="55" /><rect fill="blue" height="1" width="1" x="51" y="55" /><rect fill="blue" height="1" width="1" x="52" y="55" /><rect fill="blue" height="1" width="1" x="53" y="55" /><rect fill="blue" height="1" width="1" x="41" y="56" /><rect fill="blue" height="1" width="1" x="42" y="56" /><rect fill="blue" height="1" width="1" x="43" y="56" /><rect fill="blue" height="1" width="1" x="44" y="56" /><rect fill="blue" height="1" width="1" x="45" y="56" /><rect fill="blue" height="1" width="1" x="46" y="56" /><rect fill="blue" height="1" width="1" x="47" y="56" /><rect fill="blue" height="1" width="1" x="48" y="56" /><rect fill="blue" height="1" width="1" x="49" y="56" /><rect fill="blue" height="1" width="1" x="50" y="56" /><rect fill="blue" height="1" width="1" x="51" y="56" /><rect fill="blue" height="1" width="1" x="43" y="57" /><rect fill="blue" height="1" width="1" x="44" y="57" /><rect fill="blue" height="1" width="1" x="45" y="57" /><rect fill="blue" height="1" width="1" x="46" y="57" /><rect fill="blue" height="1" width="1" x="47" y="57" /><rect fill="blue" height="1" width="1" x="48" y="57" /><rect fill="blue" height="1" width="1" x="63" y="59" /><rect fill="blue" height="1" width="1" x="64" y="59" /><rect fill="blue" height="1" width="1" x="65" y="59" /><rect fill="blue" height="1" width="1" x="61" y="60" /><rect fill="blue" height="1" width="1" x="62" y="60" /><rect fill="blue" height="1" width="1" x="63" y="60" /><rect fill="blue" height="1" width="1" x="64" y="60" /><rect fill="blue" height="1" width="1" x="65" y="60" /><rect fill="blue" height="1" width="1" x="58" y="61" /><rect fill="blue" height="1" width="1" x="59" y="61" /><rect fill="blue" height="1" width="1" x="60" y="61" /><rect fill="blue" height="1" width="1" x="61" y="61" /><rect fill="blue" height="1" width="1" x="62" y="61" /><rect fill="blue" height="1" width="1" x="63" y="61" /><rect fill="blue" height="1" width="1" x="64" y="61" /><rect fill="blue" height="1" width="1" x="65" y="61" /><rect fill="blue" height="1" width="1" x="56" y="62" /><rect fill="blue" height="1" width="1" x="57" y="62" /><rect fill="blue" height="1" width="1" x="58" y="62" /><rect fill="blue" height="1" width="1" x="59" y="62" /><rect fill="blue" height="1" width="1" x="60" y="62" /><rect fill="blue" height="1" width="1" x="61" y="62" /><rect fill="blue" height="1" width="1" x="62" y="62" /><rect fill="blue" height="1" width="1" x="63" y="62" /><rect fill="blue" height="1" width="1" x="64" y="62" /><rect fill="blue" height="1" width="1" x="65" y="62" /><rect fill="blue" height="1" width="1" x="53" y="63" /><rect fill="blue" height="1" width="1" x="54" y="63" /><rect fill="blue" height="1" width="1" x="55" y="63" /><rect fill="blue" height="1" width="1" x="56" y="63" /><rect fill="blue" height="1" width="1" x="57" y="63" /><rect fill="blue" height="1" width="1" x="58" y="63" /><rect fill="blue" height="1" width="1" x="59" y="63" /><rect fill="blue" height="1" width="1" x="60" y="63" /><rect fill="blue" height="1" width="1" x="61" y="63" /><rect fill="blue" height="1" width="1" x="62" y="63" /><rect fill="blue" height="1" width="1" x="63" y="63" /><rect fill="blue" height="1" width="1" x="64" y="63" /><rect fill="blue" height="1" width="1" x="65" y="63" /><rect fill="blue" height="1" width="1" x="40" y="64" /><rect fill="blue" height="1" width="1" x="41" y="64" /><rect fill="blue" height="1" width="1" x="51" y="64" /><rect fill="blue" height="1" width="1" x="52" y="64" /><rect fill="blue" height="1" width="1" x="53" y="64" /><rect fill="blue" height="1" width="1" x="54" y="64" /><rect fill="blue" height="1" width="1" x="55" y="64" /><rect fill="blue" height="1" width="1" x="56" y="64" /><rect fill="blue" height="1" width="1" x="57" y="64" /><rect fill="blue" height="1" width="1" x="58" y="64" /><rect fill="blue" height="1" width="1" x="59" y="64" /><rect fill="blue" height="1" width="1" x="60" y="64" /><rect fill="blue" height="1" width="1" x="61" y="64" /><rect fill="blue" height="1" width="1" x="62" y="64" /><rect fill="blue" height="1" width="1" x="63" y="64" /><rect fill="blue" height="1" width="1" x="64" y="64" /><rect fill="blue" height="1" width="1" x="65" y="64" /><rect fill="blue" height="1" width="1" x="40" y="65" /><rect fill="blue" height="1" width="1" x="41" y="65" /><rect fill="blue" height="1" width="1" x="42" y="65" /><rect fill="blue" height="1" width="1" x="43" y="65" /><rect fill="blue" height="1" width="1" x="48" y="65" /><rect fill="blue" height="1" width="1" x="49" y="65" /><rect fill="blue" height="1" width="1" x="50" y="65" /><rect fill="blue" height="1" width="1" x="51" y="65" /><rect fill="blue" height="1" width="1" x="52" y="65" /><rect fill="blue" height="1" width="1" x="53" y="65" /><rect fill="blue" height="1" width="1" x="54" y="65" /><rect fill="blue" height="1" width="1" x="55" y="65" /><rect fill="blue" height="1" width="1" x="56" y="65" /><rect fill="blue" height="1" width="1" x="57" y="65" /><rect fill="blue" height="1" width="1" x="58" y="65" /><rect fill="blue" height="1" width="1" x="59" y="65" /><rect fill="blue" height="1" width="1" x="60" y="65" /><rect fill="blue" height="1" width="1" x="61" y="65" /><rect fill="blue" height="1" width="1" x="62" y="65" /><rect fill="blue" height="1" width="1" x="63" y="65" /><rect fill="blue" height="1" width="1" x="64" y="65" /><rect fill="blue" height="1" width="1" x="65" y="65" /><rect fill="blue" height="1" width="1" x="40" y="66" /><rect fill="blue" height="1" width="1" x="41" y="66" /><rect fill="blue" height="1" width="1" x="42" y="66" /><rect fill="blue" height="1" width="1" x="43" y="66" /><rect fill="blue" height="1" width="1" x="44" y="66" /><rect fill="blue" height="1" width="1" x="45" y="66" /><rect fill="blue" height="1" width="1" x="46" y="66" /><rect fill="blue" height="1" width="1" x="47" y="66" /><rect fill="blue" height="1" width="1" x="48" y="66" /><rect fill="blue" height="1" width="1" x="49" y="66" /><rect fill="blue" height="1" width="1" x="50" y="66" /><rect fill="blue" height="1" width="1" x="51" y="66" /><rect fill="blue" height="1" width="1" x="52" y="66" /><rect fill="blue" height="1" width="1" x="53" y="66" /><rect fill="blue" height="1" width="1" x="54" y="66" /><rect fill="blue" height="1" width="1" x="55" y="66" /><rect fill="blue" height="1" width="1" x="56" y="66" /><rect fill="blue" height="1" width="1" x="57" y="66" /><rect fill="blue" height="1" width="1" x="58" y="66" /><rect fill="blue" height="1" width="1" x="59" y="66" /><rect fill="blue" height="1" width="1" x="60" y="66" /><rect fill="blue" height="1" width="1" x="61" y="66" /><rect fill="blue" height="1" width="1" x="62" y="66" /><rect fill="blue" height="1" width="1" x="63" y="66" /><rect fill="blue" height="1" width="1" x="64" y="66" /><rect fill="blue" height="1" width="1" x="65" y="66" /><rect fill="blue" height="1" width="1" x="40" y="67" /><rect fill="blue" height="1" width="1" x="41" y="67" /><rect fill="blue" height="1" width="1" x="42" y="67" /><rect fill="blue" height="1" width="1" x="43" y="67" /><rect fill="blue" height="1" width="1" x="44" y="67" /><rect fill="blue" height="1" width="1" x="45" y="67" /><rect fill="blue" height="1" width="1" x="46" y="67" /><rect fill="blue" height="1" width="1" x="47" y="67" /><rect fill="blue" height="1" width="1" x="48" y="67" /><rect fill="blue" height="1" width="1" x="49" y="67" /><rect fill="blue" height="1" width="1" x="50" y="67" /><rect fill="blue" height="1" width="1" x="51" y="67" /><rect fill="blue" height="1" width="1" x="52" y="67" /><rect fill="blue" height="1" width="1" x="53" y="67" /><rect fill="blue" height="1" width="1" x="54" y="67" /><rect fill="blue" height="1" width="1" x="55" y="67" /><rect fill="blue" height="1" width="1" x="56" y="67" /><rect fill="blue" height="1" width="1" x="57" y="67" /><rect fill="blue" height="1" width="1" x="58" y="67" /><rect fill="blue" height="1" width="1" x="59" y="67" /><rect fill="blue" height="1" width="1" x="60" y="67" /><rect fill="blue" height="1" width="1" x="61" y="67" /><rect fill="blue" height="1" width="1" x="62" y="67" /><rect fill="blue" height="1" width="1" x="63" y="67" /><rect fill="blue" height="1" width="1" x="40" y="68" /><rect fill="blue" height="1" width="1" x="41" y="68" /><rect fill="blue" height="1" width="1" x="42" y="68" /><rect fill="blue" height="1" width="1" x="43" y="68" /><rect fill="blue" height="1" width="1" x="44" y="68" /><rect fill="blue" height="1" width="1" x="45" y="68" /><rect fill="blue" height="1" width="1" x="46" y="68" /><rect fill="blue" height="1" width="1" x="47" y="68" /><rect fill="blue" height="1" width="1" x="48" y="68" /><rect fill="blue" height="1" width="1" x="49" y="68" /><rect fill="blue" height="1" width="1" x="50" y="68" /><rect fill="blue" height="1" width="1" x="51" y="68" /><rect fill="blue" height="1" width="1" x="52" y="68" /><rect fill="blue" height="1" width="1" x="53" y="68" /><rect fill="blue" height="1" width="1" x="54" y="68" /><rect fill="blue" height="1" width="1" x="55" y="68" /><rect fill="blue" height="1" width="1" x="56" y="68" /><rect fill="blue" height="1" width="1" x="57" y="68" /><rect fill="blue" height="1" width="1" x="58" y="68" /><rect fill="blue" height="1" width="1" x="59" y="68" /><rect fill="blue" height="1" width="1" x="60" y="68" /><rect fill="blue" height="1" width="1" x="40" y="69" /><rect fill="blue" height="1" width="1" x="41" y="69" /><rect fill="blue" height="1" width="1" x="42" y="69" /><rect fill="blue" height="1" width="1" x="43" y="69" /><rect fill="blue" height="1" width="1" x="44" y="69" /><rect fill="blue" height="1" width="1" x="45" y="69" /><rect fill="blue" height="1" width="1" x="46" y="69" /><rect fill="blue" height="1" width="1" x="47" y="69" /><rect fill="blue" height="1" width="1" x="48" y="69" /><rect fill="blue" height="1" width="1" x="49" y="69" /><rect fill="blue" height="1" width="1" x="50" y="69" /><rect fill="blue" height="1" width="1" x="51" y="69" /><rect fill="blue" height="1" width="1" x="52" y="69" /><rect fill="blue" height="1" width="1" x="53" y="69" /><rect fill="blue" height="1" width="1" x="54" y="69" /><rect fill="blue" height="1" width="1" x="55" y="69" /><rect fill="blue" height="1" width="1" x="56" y="69" /><rect fill="blue" height="1" width="1" x="57" y="69" /><rect fill="blue" height="1" width="1" x="58" y="69" /><rect fill="blue" height="1" width="1" x="40" y="70" /><rect fill="blue" height="1" width="1" x="41" y="70" /><rect fill="blue" height="1" width="1" x="42" y="70" /><rect fill="blue" height="1" width="1" x="43" y="70" /><rect fill="blue" height="1" width="1" x="44" y="70" /><rect fill="blue" height="1" width="1" x="45" y="70" /><rect fill="blue" height="1" width="1" x="46" y="70" /><rect fill="blue" height="1" width="1" x="47" y="70" /><rect fill="blue" height="1" width="1" x="48" y="70" /><rect fill="blue" height="1" width="1" x="49" y="70" /><rect fill="blue" height="1" width="1" x="50" y="70" /><rect fill="blue" height="1" width="1" x="51" y="70" /><rect fill="blue" height="1" width="1" x="52" y="70" /><rect fill="blue" height="1" width="1" x="53" y="70" /><rect fill="blue" height="1" width="1" x="54" y="70" /><rect fill="blue" height="1" width="1" x="55" y="70" /><rect fill="blue" height="1" width="1" x="40" y="71" /><rect fill="blue" height="1" width="1" x="41" y="71" /><rect fill="blue" height="1" width="1" x="42" y="71" /><rect fill="blue" height="1" width="1" x="43" y="71" /><rect fill="blue" height="1" width="1" x="44" y="71" /><rect fill="blue" height="1" width="1" x="45" y="71" /><rect fill="blue" height="1" width="1" x="46" y="71" /><rect fill="blue" height="1" width="1" x="47" y="71" /><rect fill="blue" height="1" width="1" x="48" y="71" /><rect fill="blue" height="1" width="1" x="49" y="71" /><rect fill="blue" height="1" width="1" x="50" y="71" /><rect fill="blue" height="1" width="1" x="51" y="71" /><rect fill="blue" height="1" width="1" x="52" y="71" /><rect fill="blue" height="1" width="1" x="53" y="71" /><rect fill="blue" height="1" width="1" x="41" y="72" /><rect fill="blue" height="1" width="1" x="42" y="72" /><rect fill="blue" height="1" width="1" x="43" y="72" /><rect fill="blue" height="1" width="1" x="44" y="72" /><rect fill="blue" height="1" width="1" x="45" y="72" /><rect fill="blue" height="1" width="1" x="46" y="72" /><rect fill="blue" height="1" width="1" x="47" y="72" /><rect fill="blue" height="1" width="1" x="48" y="72" /><rect fill="blue" height="1" width="1" x="49" y="72" /><rect fill="blue" height="1" width="1" x="50" y="72" /><rect fill="blue" height="1" width="1" x="44" y="73" /><rect fill="blue" height="1" width="1" x="45" y="73" /><rect fill="blue" height="1" width="1" x="46" y="73" /><rect fill="blue" height="1" width="1" x="47" y="73" /><rect fill="blue" height="1" width="1" x="48" y="73" /></svg>